<svg width="235" height="99" viewBox="0 0 235 99" fill="none" xmlns="http://www.w3.org/2000/svg">
<path d="M43.0252 52.55C43.5019 52.6367 44.0869 52.7233 44.7802 52.81C45.4736 52.8533 46.1236 52.875 46.7302 52.875C48.2036 52.875 49.5469 52.6583 50.7602 52.225C52.0169 51.7917 53.0786 51.12 53.9452 50.21C54.8552 49.3 55.5486 48.13 56.0252 46.7C56.5452 45.2267 56.8052 43.4717 56.8052 41.435C56.8052 37.535 55.8952 34.61 54.0752 32.66C52.2552 30.6667 49.8286 29.67 46.7952 29.67C46.1886 29.67 45.5602 29.6917 44.9102 29.735C44.3036 29.7783 43.6752 29.8433 43.0252 29.93V52.55ZM46.6652 62.04C45.9286 62.04 45.0836 62.0183 44.1302 61.975C43.1769 61.9317 42.1802 61.845 41.1402 61.715C40.1436 61.585 39.1252 61.4117 38.0852 61.195C37.0886 61.0217 36.1569 60.7617 35.2902 60.415C32.9069 59.505 31.7152 57.9233 31.7152 55.67V25.315C31.7152 24.405 31.9536 23.7117 32.4302 23.235C32.9502 22.715 33.6436 22.3033 34.5102 22C36.3736 21.3933 38.3452 21.0033 40.4252 20.83C42.5052 20.6133 44.3686 20.505 46.0152 20.505C49.3952 20.505 52.4502 20.9167 55.1802 21.74C57.9536 22.5633 60.3152 23.8417 62.2652 25.575C64.2586 27.265 65.7969 29.41 66.8802 32.01C67.9636 34.61 68.5052 37.6867 68.5052 41.24C68.5052 44.7067 67.9852 47.74 66.9452 50.34C65.9052 52.8967 64.4102 55.0633 62.4602 56.84C60.5536 58.5733 58.2569 59.8733 55.5702 60.74C52.8836 61.6067 49.9152 62.04 46.6652 62.04ZM74.1613 29.865C74.5946 29.735 75.2663 29.605 76.1763 29.475C77.1296 29.345 78.1046 29.28 79.1013 29.28C80.0546 29.28 80.8996 29.345 81.6363 29.475C82.4163 29.605 83.0663 29.865 83.5863 30.255C84.1063 30.645 84.4963 31.1867 84.7563 31.88C85.0596 32.53 85.2113 33.3967 85.2113 34.48V48.455C85.2113 50.2317 85.6446 51.51 86.5113 52.29C87.3779 53.0267 88.6346 53.395 90.2813 53.395C91.2779 53.395 92.0796 53.3083 92.6863 53.135C93.3363 52.9617 93.8346 52.7883 94.1813 52.615V29.865C94.6146 29.735 95.2863 29.605 96.1963 29.475C97.1496 29.345 98.1246 29.28 99.1213 29.28C100.075 29.28 100.92 29.345 101.656 29.475C102.436 29.605 103.086 29.865 103.606 30.255C104.126 30.645 104.516 31.1867 104.776 31.88C105.08 32.53 105.231 33.3967 105.231 34.48V54.24C105.231 56.4067 104.321 58.0317 102.501 59.115C100.985 60.0683 99.1646 60.7833 97.0413 61.26C94.9613 61.78 92.6863 62.04 90.2163 62.04C87.8763 62.04 85.7096 61.78 83.7163 61.26C81.7663 60.74 80.0763 59.9383 78.6463 58.855C77.2163 57.7717 76.1113 56.385 75.3313 54.695C74.5513 52.9617 74.1613 50.8817 74.1613 48.455V29.865ZM125.513 53.98C126.25 53.98 127.052 53.915 127.918 53.785C128.828 53.6117 129.5 53.395 129.933 53.135V47.935L125.253 48.325C124.04 48.4117 123.043 48.6717 122.263 49.105C121.483 49.5383 121.093 50.1883 121.093 51.055C121.093 51.9217 121.418 52.6367 122.068 53.2C122.762 53.72 123.91 53.98 125.513 53.98ZM124.993 28.435C127.333 28.435 129.457 28.6733 131.363 29.15C133.313 29.6267 134.96 30.3633 136.303 31.36C137.69 32.3133 138.752 33.5483 139.488 35.065C140.225 36.5383 140.593 38.2933 140.593 40.33V54.89C140.593 56.0167 140.268 56.9483 139.618 57.685C139.012 58.3783 138.275 58.985 137.408 59.505C134.592 61.195 130.627 62.04 125.513 62.04C123.217 62.04 121.137 61.8233 119.273 61.39C117.453 60.9567 115.872 60.3067 114.528 59.44C113.228 58.5733 112.21 57.4683 111.473 56.125C110.78 54.7817 110.433 53.2217 110.433 51.445C110.433 48.455 111.322 46.1583 113.098 44.555C114.875 42.9517 117.627 41.955 121.353 41.565L129.868 40.655V40.2C129.868 38.9433 129.305 38.055 128.178 37.535C127.095 36.9717 125.513 36.69 123.433 36.69C121.787 36.69 120.183 36.8633 118.623 37.21C117.063 37.5567 115.655 37.99 114.398 38.51C113.835 38.12 113.358 37.535 112.968 36.755C112.578 35.9317 112.383 35.0867 112.383 34.22C112.383 33.0933 112.643 32.205 113.163 31.555C113.727 30.8617 114.572 30.2767 115.698 29.8C116.955 29.3233 118.428 28.9767 120.118 28.76C121.852 28.5433 123.477 28.435 124.993 28.435ZM158.4 60.935C157.966 61.065 157.273 61.195 156.32 61.325C155.41 61.455 154.456 61.52 153.46 61.52C152.506 61.52 151.64 61.455 150.86 61.325C150.123 61.195 149.495 60.935 148.975 60.545C148.455 60.155 148.043 59.635 147.74 58.985C147.48 58.2917 147.35 57.4033 147.35 56.32V36.82C147.35 35.8233 147.523 34.9783 147.87 34.285C148.26 33.5483 148.801 32.8983 149.495 32.335C150.188 31.7717 151.033 31.2733 152.03 30.84C153.07 30.3633 154.175 29.9517 155.345 29.605C156.515 29.2583 157.728 28.9983 158.985 28.825C160.241 28.6083 161.498 28.5 162.755 28.5C164.835 28.5 166.481 28.9117 167.695 29.735C168.908 30.515 169.515 31.815 169.515 33.635C169.515 34.2417 169.428 34.8483 169.255 35.455C169.081 36.0183 168.865 36.5383 168.605 37.015C167.695 37.015 166.763 37.0583 165.81 37.145C164.856 37.2317 163.925 37.3617 163.015 37.535C162.105 37.7083 161.238 37.9033 160.415 38.12C159.635 38.2933 158.963 38.51 158.4 38.77V60.935ZM180.029 52.94C179.552 51.8567 179.032 50.6433 178.469 49.3C177.949 47.9567 177.386 46.4183 176.779 44.685C176.216 42.9517 175.609 40.98 174.959 38.77C174.352 36.5167 173.702 33.9383 173.009 31.035C173.616 30.4283 174.417 29.9083 175.414 29.475C176.454 28.9983 177.581 28.76 178.794 28.76C180.311 28.76 181.567 29.085 182.564 29.735C183.561 30.3417 184.297 31.5117 184.774 33.245L189.909 51.12H190.169C190.689 49.6467 191.187 48.0433 191.664 46.31C192.184 44.5767 192.682 42.8 193.159 40.98C193.636 39.1167 194.069 37.275 194.459 35.455C194.892 33.5917 195.261 31.7717 195.564 29.995C197.124 29.1717 198.836 28.76 200.699 28.76C202.216 28.76 203.472 29.085 204.469 29.735C205.466 30.385 205.964 31.5117 205.964 33.115C205.964 34.285 205.812 35.65 205.509 37.21C205.206 38.7267 204.794 40.3517 204.274 42.085C203.797 43.8183 203.212 45.6167 202.519 47.48C201.869 49.3 201.176 51.0983 200.439 52.875C199.702 54.6517 198.944 56.3417 198.164 57.945C197.384 59.505 196.626 60.9133 195.889 62.17C194.676 64.2933 193.549 66.0267 192.509 67.37C191.469 68.7133 190.472 69.7533 189.519 70.49C188.566 71.27 187.612 71.79 186.659 72.05C185.706 72.3533 184.709 72.505 183.669 72.505C181.849 72.505 180.376 71.9633 179.249 70.88C178.122 69.7967 177.451 68.3883 177.234 66.655C178.621 65.5717 180.007 64.3583 181.394 63.015C182.781 61.715 184.037 60.3717 185.164 58.985C184.427 58.7683 183.626 58.27 182.759 57.49C181.936 56.6667 181.026 55.15 180.029 52.94Z" fill="#FFAC40"/>
<circle cx="118.5" cy="21.5" r="2.5" fill="#4058F9"/>
<circle cx="131.5" cy="21.5" r="2.5" fill="#4058F9"/>
</svg>
