<svg width="288" height="288" viewBox="0 0 288 288" fill="none" xmlns="http://www.w3.org/2000/svg">
<path d="M69.5252 147.55C70.0019 147.637 70.5869 147.723 71.2802 147.81C71.9736 147.853 72.6236 147.875 73.2302 147.875C74.7036 147.875 76.0469 147.658 77.2602 147.225C78.5169 146.792 79.5786 146.12 80.4452 145.21C81.3552 144.3 82.0486 143.13 82.5252 141.7C83.0452 140.227 83.3052 138.472 83.3052 136.435C83.3052 132.535 82.3952 129.61 80.5752 127.66C78.7552 125.667 76.3286 124.67 73.2952 124.67C72.6886 124.67 72.0602 124.692 71.4102 124.735C70.8036 124.778 70.1752 124.843 69.5252 124.93V147.55ZM73.1652 157.04C72.4286 157.04 71.5836 157.018 70.6302 156.975C69.6769 156.932 68.6802 156.845 67.6402 156.715C66.6436 156.585 65.6252 156.412 64.5852 156.195C63.5886 156.022 62.6569 155.762 61.7902 155.415C59.4069 154.505 58.2152 152.923 58.2152 150.67V120.315C58.2152 119.405 58.4536 118.712 58.9302 118.235C59.4502 117.715 60.1436 117.303 61.0102 117C62.8736 116.393 64.8452 116.003 66.9252 115.83C69.0052 115.613 70.8686 115.505 72.5152 115.505C75.8952 115.505 78.9502 115.917 81.6802 116.74C84.4536 117.563 86.8152 118.842 88.7652 120.575C90.7586 122.265 92.2969 124.41 93.3802 127.01C94.4636 129.61 95.0052 132.687 95.0052 136.24C95.0052 139.707 94.4852 142.74 93.4452 145.34C92.4052 147.897 90.9102 150.063 88.9602 151.84C87.0536 153.573 84.7569 154.873 82.0702 155.74C79.3836 156.607 76.4152 157.04 73.1652 157.04ZM100.661 124.865C101.095 124.735 101.766 124.605 102.676 124.475C103.63 124.345 104.605 124.28 105.601 124.28C106.555 124.28 107.4 124.345 108.136 124.475C108.916 124.605 109.566 124.865 110.086 125.255C110.606 125.645 110.996 126.187 111.256 126.88C111.56 127.53 111.711 128.397 111.711 129.48V143.455C111.711 145.232 112.145 146.51 113.011 147.29C113.878 148.027 115.135 148.395 116.781 148.395C117.778 148.395 118.58 148.308 119.186 148.135C119.836 147.962 120.335 147.788 120.681 147.615V124.865C121.115 124.735 121.786 124.605 122.696 124.475C123.65 124.345 124.625 124.28 125.621 124.28C126.575 124.28 127.42 124.345 128.156 124.475C128.936 124.605 129.586 124.865 130.106 125.255C130.626 125.645 131.016 126.187 131.276 126.88C131.58 127.53 131.731 128.397 131.731 129.48V149.24C131.731 151.407 130.821 153.032 129.001 154.115C127.485 155.068 125.665 155.783 123.541 156.26C121.461 156.78 119.186 157.04 116.716 157.04C114.376 157.04 112.21 156.78 110.216 156.26C108.266 155.74 106.576 154.938 105.146 153.855C103.716 152.772 102.611 151.385 101.831 149.695C101.051 147.962 100.661 145.882 100.661 143.455V124.865ZM152.013 148.98C152.75 148.98 153.552 148.915 154.418 148.785C155.328 148.612 156 148.395 156.433 148.135V142.935L151.753 143.325C150.54 143.412 149.543 143.672 148.763 144.105C147.983 144.538 147.593 145.188 147.593 146.055C147.593 146.922 147.918 147.637 148.568 148.2C149.262 148.72 150.41 148.98 152.013 148.98ZM151.493 123.435C153.833 123.435 155.957 123.673 157.863 124.15C159.813 124.627 161.46 125.363 162.803 126.36C164.19 127.313 165.252 128.548 165.988 130.065C166.725 131.538 167.093 133.293 167.093 135.33V149.89C167.093 151.017 166.768 151.948 166.118 152.685C165.512 153.378 164.775 153.985 163.908 154.505C161.092 156.195 157.127 157.04 152.013 157.04C149.717 157.04 147.637 156.823 145.773 156.39C143.953 155.957 142.372 155.307 141.028 154.44C139.728 153.573 138.71 152.468 137.973 151.125C137.28 149.782 136.933 148.222 136.933 146.445C136.933 143.455 137.822 141.158 139.598 139.555C141.375 137.952 144.127 136.955 147.853 136.565L156.368 135.655V135.2C156.368 133.943 155.805 133.055 154.678 132.535C153.595 131.972 152.013 131.69 149.933 131.69C148.287 131.69 146.683 131.863 145.123 132.21C143.563 132.557 142.155 132.99 140.898 133.51C140.335 133.12 139.858 132.535 139.468 131.755C139.078 130.932 138.883 130.087 138.883 129.22C138.883 128.093 139.143 127.205 139.663 126.555C140.227 125.862 141.072 125.277 142.198 124.8C143.455 124.323 144.928 123.977 146.618 123.76C148.352 123.543 149.977 123.435 151.493 123.435ZM184.9 155.935C184.466 156.065 183.773 156.195 182.82 156.325C181.91 156.455 180.956 156.52 179.96 156.52C179.006 156.52 178.14 156.455 177.36 156.325C176.623 156.195 175.995 155.935 175.475 155.545C174.955 155.155 174.543 154.635 174.24 153.985C173.98 153.292 173.85 152.403 173.85 151.32V131.82C173.85 130.823 174.023 129.978 174.37 129.285C174.76 128.548 175.301 127.898 175.995 127.335C176.688 126.772 177.533 126.273 178.53 125.84C179.57 125.363 180.675 124.952 181.845 124.605C183.015 124.258 184.228 123.998 185.485 123.825C186.741 123.608 187.998 123.5 189.255 123.5C191.335 123.5 192.981 123.912 194.195 124.735C195.408 125.515 196.015 126.815 196.015 128.635C196.015 129.242 195.928 129.848 195.755 130.455C195.581 131.018 195.365 131.538 195.105 132.015C194.195 132.015 193.263 132.058 192.31 132.145C191.356 132.232 190.425 132.362 189.515 132.535C188.605 132.708 187.738 132.903 186.915 133.12C186.135 133.293 185.463 133.51 184.9 133.77V155.935ZM206.529 147.94C206.052 146.857 205.532 145.643 204.969 144.3C204.449 142.957 203.886 141.418 203.279 139.685C202.716 137.952 202.109 135.98 201.459 133.77C200.852 131.517 200.202 128.938 199.509 126.035C200.116 125.428 200.917 124.908 201.914 124.475C202.954 123.998 204.081 123.76 205.294 123.76C206.811 123.76 208.067 124.085 209.064 124.735C210.061 125.342 210.797 126.512 211.274 128.245L216.409 146.12H216.669C217.189 144.647 217.687 143.043 218.164 141.31C218.684 139.577 219.182 137.8 219.659 135.98C220.136 134.117 220.569 132.275 220.959 130.455C221.392 128.592 221.761 126.772 222.064 124.995C223.624 124.172 225.336 123.76 227.199 123.76C228.716 123.76 229.972 124.085 230.969 124.735C231.966 125.385 232.464 126.512 232.464 128.115C232.464 129.285 232.312 130.65 232.009 132.21C231.706 133.727 231.294 135.352 230.774 137.085C230.297 138.818 229.712 140.617 229.019 142.48C228.369 144.3 227.676 146.098 226.939 147.875C226.202 149.652 225.444 151.342 224.664 152.945C223.884 154.505 223.126 155.913 222.389 157.17C221.176 159.293 220.049 161.027 219.009 162.37C217.969 163.713 216.972 164.753 216.019 165.49C215.066 166.27 214.112 166.79 213.159 167.05C212.206 167.353 211.209 167.505 210.169 167.505C208.349 167.505 206.876 166.963 205.749 165.88C204.622 164.797 203.951 163.388 203.734 161.655C205.121 160.572 206.507 159.358 207.894 158.015C209.281 156.715 210.537 155.372 211.664 153.985C210.927 153.768 210.126 153.27 209.259 152.49C208.436 151.667 207.526 150.15 206.529 147.94Z" fill="#FFAC40"/>
<circle cx="146.5" cy="114.5" r="2.5" fill="#4058F9"/>
<circle cx="159.5" cy="114.5" r="2.5" fill="#4058F9"/>
</svg>
