<svg width="20" height="21" viewBox="0 0 20 21" fill="none" xmlns="http://www.w3.org/2000/svg">
<path fill-rule="evenodd" clip-rule="evenodd" d="M10.2738 10.7288C12.961 10.7288 15.1395 8.55097 15.1395 5.86442C15.1395 3.17788 12.961 1 10.2738 1C7.58656 1 5.40812 3.17788 5.40812 5.86442C5.40812 8.55097 7.58656 10.7288 10.2738 10.7288ZM10.2738 13.5C7.0476 13.5 0.5 15 0.5 18.0221V20.5H19.5V18C19.5 15 13.5 13.5 10.2738 13.5Z" fill="#F4F4F4"/>
<path d="M0.5 20.5H0V21H0.5V20.5ZM19.5 20.5V21H20V20.5H19.5ZM14.6395 5.86442C14.6395 8.2747 12.685 10.2288 10.2738 10.2288V11.2288C13.2371 11.2288 15.6395 8.82723 15.6395 5.86442H14.6395ZM10.2738 1.5C12.685 1.5 14.6395 3.45414 14.6395 5.86442H15.6395C15.6395 2.90161 13.2371 0.5 10.2738 0.5V1.5ZM5.90812 5.86442C5.90812 3.45414 7.86258 1.5 10.2738 1.5V0.5C7.31054 0.5 4.90812 2.90161 4.90812 5.86442H5.90812ZM10.2738 10.2288C7.86258 10.2288 5.90812 8.2747 5.90812 5.86442H4.90812C4.90812 8.82723 7.31054 11.2288 10.2738 11.2288V10.2288ZM1 18.0221C1 17.4659 1.29725 16.9325 1.89763 16.4213C2.49945 15.9088 3.3582 15.4629 4.35015 15.0969C6.3333 14.3651 8.71802 14 10.2738 14V13C8.60338 13 6.1012 13.3849 4.00399 14.1587C2.95577 14.5454 1.97599 15.0411 1.24931 15.6599C0.521205 16.2799 0 17.0673 0 18.0221H1ZM1 20.5V18.0221H0V20.5H1ZM19.5 20H0.5V21H19.5V20ZM19 18V20.5H20V18H19ZM10.2738 14C11.8277 14 14.0718 14.3645 15.9134 15.0902C16.8342 15.453 17.6233 15.8942 18.174 16.3996C18.721 16.9017 19 17.4337 19 18H20C20 17.0663 19.529 16.2859 18.8502 15.6629C18.1751 15.0433 17.2625 14.547 16.28 14.1598C14.3151 13.3855 11.9461 13 10.2738 13V14Z" fill="#D4D4D4"/>
</svg>
